HIERARCHY
ROOT Hips
{
  OFFSET 0 89.5177 0.535
  CHANNELS 6 Xposition Yposition Zposition Zrotation Xrotation Yrotation
  JOINT Spine
  {
    OFFSET 12.0259 -0.162855 1.69034e-005
    CHANNELS 3 Zrotation Xrotation Yrotation
    JOINT Spine1
    {
      OFFSET 15.3169 -0.0121922 0
      CHANNELS 3 Zrotation Xrotation Yrotation
      JOINT Spine2
      {
        OFFSET 15.3176 -0.0121908 0
        CHANNELS 3 Zrotation Xrotation Yrotation
        JOINT Neck
        {
          OFFSET 19.9142 1.56338 0
          CHANNELS 3 Zrotation Xrotation Yrotation
          JOINT Head
          {
            OFFSET 6.92651 0 0
            CHANNELS 3 Zrotation Xrotation Yrotation
            End Site
            {
              OFFSET 20.7666 0 0
            }
          }
          JOINT LeftShoulder
          {
            OFFSET -6.20654 0.708824 7.28219
            CHANNELS 3 Zrotation Xrotation Yrotation
            JOINT LeftArm
            {
              OFFSET 14.108 0 -1.52588e-005
              CHANNELS 3 Zrotation Xrotation Yrotation
              JOINT LeftForeArm
              {
                OFFSET 28.5802 0 0
                CHANNELS 3 Zrotation Xrotation Yrotation
                JOINT LeftHand
                {
                  OFFSET 27.092 0 0
                  CHANNELS 3 Zrotation Xrotation Yrotation
                  End Site
                  {
                    OFFSET 9.55928 -0.186424 0.145352
                  }
                }
              }
            }
          }
          JOINT RightShoulder
          {
            OFFSET -6.20654 0.708866 -7.28218
            CHANNELS 3 Zrotation Xrotation Yrotation
            JOINT RightArm
            {
              OFFSET 14.108 0 1.52588e-005
              CHANNELS 3 Zrotation Xrotation Yrotation
              JOINT RightForeArm
              {
                OFFSET 28.5802 0 0
                CHANNELS 3 Zrotation Xrotation Yrotation
                JOINT RightHand
                {
                  OFFSET 27.092 0 0
                  CHANNELS 3 Zrotation Xrotation Yrotation
                  End Site
                  {
                    OFFSET 9.55929 -0.186417 -0.145354
                  }
                }
              }
            }
          }
        }
      }
    }
  }
  JOINT LeftUpLeg
  {
    OFFSET 0.005 -0.535 8.837
    CHANNELS 3 Zrotation Xrotation Yrotation
    JOINT LeftLeg
    {
      OFFSET 39.9035 0 0
      CHANNELS 3 Zrotation Xrotation Yrotation
      JOINT LeftFoot
      {
        OFFSET 39.6689 0 0
        CHANNELS 3 Zrotation Xrotation Yrotation
        JOINT LeftToe
        {
          OFFSET 10.1624 13.6296 0
          CHANNELS 3 Zrotation Xrotation Yrotation
          End Site
          {
            OFFSET 8.38147 0 0
          }
        }
      }
    }
  }
  JOINT RightUpLeg
  {
    OFFSET 0.005 -0.535 -8.837
    CHANNELS 3 Zrotation Xrotation Yrotation
    JOINT RightLeg
    {
      OFFSET 39.9035 0 0
      CHANNELS 3 Zrotation Xrotation Yrotation
      JOINT RightFoot
      {
        OFFSET 39.6689 0 0
        CHANNELS 3 Zrotation Xrotation Yrotation
        JOINT RightToe
        {
          OFFSET 10.1624 13.6296 0
          CHANNELS 3 Zrotation Xrotation Yrotation
          End Site
          {
            OFFSET 8.38147 0 0
          }
        }
      }
    }
  }
}
MOTION
Frames:	7
Frame Time:	0.0333333
85.0336 88.158 160.591 -116.474 41.4301 -168.981 -0.86644 -1.16302 -0.356484 -1.74063 -2.32003 -0.730565 -1.74063 -2.32002 -0.730575 -8.30748e-012 -9.0191e-006 -5.27751e-005 6.87301 13.4755 -8.02955 -179.386 -3.72904 -80.6359 -19.0071 36.981 66.5761 -98.3219 -2.38542e-015 6.36111e-015 -41.6915 -55.8497 -34.5597 -176.421 12.3216 73.666 5.527 -0.122069 -66.3053 -126.633 1.59028e-015 9.54166e-015 -62.2632 28.4829 44.8643 -1.22509 -8.13441 -178.365 -35.2284 -6.36111e-015 -3.18055e-015 -19.5782 10.089 -20.6326 90 -3.18055e-015 3.18055e-015 -37.2375 -9.82065 -177.155 -20.5456 -3.18056e-015 3.97569e-016 10.2433 -4.3068 8.441 90 2.5842e-015 3.18055e-015 
88.7743 85.5182 165.985 -116.28 41.6708 -169.857 -0.913198 -0.626858 -0.0117959 -1.82669 -1.25298 -0.0334038 -1.82669 -1.25298 -0.0334131 -8.30987e-012 -9.0191e-006 -5.27751e-005 6.65784 12.0361 -8.61395 -179.265 -4.1983 -80.0651 -18.0864 38.5807 65.5035 -97.623 -1.59028e-015 3.18055e-015 -45.2298 -55.2666 -38.6044 -176.759 11.6637 74.3509 -1.10176 0.94459 -67.6201 -122.195 6.36111e-015 -3.18055e-015 -61.0201 25.0034 38.925 -7.02545 -6.93357 -177.235 -49.9828 -6.36111e-015 -1.59028e-014 -14.6256 8.55928 -17.3455 90 -9.54166e-015 -3.18055e-015 -42.1358 -8.23289 -176.005 -37.8032 9.54167e-015 2.38542e-015 15.0704 -2.56107 4.9984 90 3.97569e-016 9.54166e-015 
92.5047 83.737 171.124 -115.487 42.5104 -173.579 -0.622501 -0.0119411 0.913559 -1.24474 -0.0333382 1.82711 -1.24474 -0.0333381 1.8271 -8.31384e-012 -9.0191e-006 -5.27751e-005 6.21013 11.475 -9.31741 -178.91 -5.44922 -78.673 -15.6973 38.1043 64.2308 -96.4192 1.59028e-015 -1.59028e-015 -49.2602 -53.963 -42.9825 -176.745 10.3146 72.3786 -7.016 4.87109 -64.6809 -113.409 3.18055e-015 6.36111e-015 -62.3962 20.8056 34.8844 -14.0528 -6.99729 -174.058 -64.5211 -4.77083e-015 3.18055e-015 -8.57245 6.30764 -12.6755 90 3.18055e-015 1.59028e-015 -40.4732 -9.07958 -172.147 -45.5597 9.54167e-015 -4.77083e-015 20.9179 -1.63669 3.16005 90 3.97569e-016 -3.18055e-015 
96.5418 83.2416 176.131 -116.771 41.6275 -172.767 -0.983855 0.602683 1.1891 -1.98017 1.18519 2.38875 -1.98017 1.18519 2.38874 -8.3051e-012 -9.0191e-006 -5.27751e-005 6.94295 9.58003 -10.3292 -178.619 -6.10944 -77.2355 -13.4179 38.5673 63.4603 -95.7938 0 -0 -48.7509 -52.8377 -42.3206 -176.751 8.64035 69.2992 -9.73666 7.72205 -59.9849 -98.9152 1.59028e-015 -0 -65.2556 16.9447 31.0094 -23.5464 -8.69904 -175.043 -73.6188 0 3.18055e-015 -3.87382 4.54466 -9.10759 90 -3.18055e-015 4.77083e-015 -37.0137 -8.82025 -171.355 -46.4183 -6.36111e-015 -0 25.5522 -1.12106 2.12012 90 -3.97569e-016 6.36111e-015 
101.018 83.9865 180.851 -116.822 40.0418 -171.762 -1.24518 1.52147 1.09146 -2.52045 3.01904 2.21708 -2.52045 3.01904 2.21707 -8.30748e-012 -9.0191e-006 -5.27751e-005 7.68142 6.01346 -11.2436 -178.797 -5.19416 -76.9385 -13.3125 39.7754 63.5146 -96.3378 0 3.18055e-015 -48.8058 -52.663 -42.184 -176.868 7.55616 67.4093 -8.99992 11.2868 -57.198 -78.7313 -8.44835e-016 -0 -66.9642 14.7022 28.3753 -31.8589 -10.6674 -178.45 -76.6075 -3.18055e-015 -6.36111e-015 1.91517 3.44861 -6.89377 90 3.18055e-015 -3.18055e-015 -30.7005 -9.9554 -172.669 -42.9826 -9.54167e-015 -3.18056e-015 27.8601 -2.12812 4.10252 90 -7.95139e-016 -3.18055e-015 
106.043 85.5766 185.782 -116.151 39.808 -170.115 -1.24214 2.59462 0.529576 -2.51213 5.17748 1.1173 -2.51213 5.17748 1.11729 -8.31265e-012 -9.0191e-006 -5.27751e-005 7.85425 3.09545 -10.799 -179.069 -4.24384 -77.611 -12.6909 41.0093 63.115 -97.7032 3.18055e-015 6.36111e-015 -49.5188 -53.861 -42.9552 -177.429 6.42877 68.1497 -7.29113 17.4158 -58.5772 -52.8946 -4.77083e-015 -0 -62.5233 16.9927 27.763 -37.2539 -10.0244 178.056 -72.8165 -3.18055e-015 -9.54166e-015 7.12584 3.02695 -6.01294 90 0 -6.36111e-015 -23.157 -9.15614 -174.36 -37.6311 3.18056e-015 -0 25.4225 -3.15225 6.1592 90 0 -9.54166e-015 
111.594 87.4269 190.625 -115.72 39.3873 -167.684 -1.17071 3.30433 -0.197066 -2.33588 6.61245 -0.326968 -2.33588 6.61245 -0.326978 -8.30788e-012 -9.0191e-006 -5.27751e-005 8.09968 0.953593 -9.90955 -179.107 -4.1572 -77.8636 -11.1762 41.6464 62.3023 -98.811 -3.18055e-015 -3.18055e-015 -49.9418 -55.1339 -43.4592 -178.531 3.88084 69.2461 -4.23761 26.7652 -59.7426 -24.6342 -3.18055e-015 -3.18055e-015 -34.3827 25.2793 21.5726 -40.753 -8.27787 174.342 -63.5255 -6.36111e-015 -9.54166e-015 8.67415 2.57345 -5.08542 90 7.95139e-015 -6.36111e-015 -17.0569 -9.49051 -177.823 -33.4724 -3.18056e-015 6.36111e-015 20.1619 -5.26325 10.4687 90 -3.18055e-015 -0 
